# xmcd
#
# Track frame offsets: 
#        150
#        14415
#        39450
#        56145
#        78445
#        92945
#        113180
#        139850
#        179286
#
# Disc length: 2587 seconds
#
# Revision: 0
# Processed by: cddbd v1.5.1PL0 Copyright (c) Steve Scherf et al.
# Submitted via: ExactAudioCopy v0.95b1
#
DISCID=770a1909
DTITLE=Johnny Copeland - Long Beach 1983
DYEAR=1900
DGENRE=
TTITLE0=Well Well Baby La
TTITLE1=Old Man Blues
TTITLE2=Natural Born Believer
TTITLE3=Honky Tonkin'
TTITLE4=Devil's Hand
TTITLE5=Midnight Fantansy
TTITLE6=?
TTITLE7=(instrumental)
TTITLE8=Love Utopia
EXTD=
EXTT0=
EXTT1=
EXTT2=
EXTT3=
EXTT4=
EXTT5=
EXTT6=
EXTT7=
EXTT8=
PLAYORDER=
